<?xml version="1.0" encoding="UTF-8" standalone="no"?>
<!DOCTYPE svg PUBLIC "-//W3C//DTD SVG 1.1//EN"
 "http://www.w3.org/Graphics/SVG/1.1/DTD/svg11.dtd">
<!-- Generated by graphviz version 2.40.1 (20161225.0304)
 -->
<!-- Title: G Pages: 1 -->
<svg width="453pt" height="532pt"
 viewBox="0.00 0.00 452.74 532.00" xmlns="http://www.w3.org/2000/svg" xmlns:xlink="http://www.w3.org/1999/xlink">
<g id="graph0" class="graph" transform="scale(1 1) rotate(0) translate(4 528)">
<title>G</title>
<polygon fill="#ffffff" stroke="transparent" points="-4,4 -4,-528 448.7424,-528 448.7424,4 -4,4"/>
<g id="clust1" class="cluster">
<title>cluster_Global</title>
<path fill="none" stroke="#c0c0c0" d="M20,-44C20,-44 424.7424,-44 424.7424,-44 430.7424,-44 436.7424,-50 436.7424,-56 436.7424,-56 436.7424,-504 436.7424,-504 436.7424,-510 430.7424,-516 424.7424,-516 424.7424,-516 20,-516 20,-516 14,-516 8,-510 8,-504 8,-504 8,-56 8,-56 8,-50 14,-44 20,-44"/>
<text text-anchor="middle" x="222.3712" y="-503.2" font-family="Times,serif" font-size="11.00" fill="#c0c0c0">Global</text>
</g>
<g id="clust2" class="cluster">
<title>cluster_\DownloadBooster</title>
<path fill="none" stroke="#c0c0c0" d="M28,-52C28,-52 416.7424,-52 416.7424,-52 422.7424,-52 428.7424,-58 428.7424,-64 428.7424,-64 428.7424,-477 428.7424,-477 428.7424,-483 422.7424,-489 416.7424,-489 416.7424,-489 28,-489 28,-489 22,-489 16,-483 16,-477 16,-477 16,-64 16,-64 16,-58 22,-52 28,-52"/>
<text text-anchor="middle" x="222.3712" y="-476.2" font-family="Times,serif" font-size="11.00" fill="#c0c0c0">DownloadBooster</text>
</g>
<g id="clust3" class="cluster">
<title>cluster_\DownloadBooster\Downloader</title>
<path fill="none" stroke="#c0c0c0" d="M36,-106C36,-106 408.7424,-106 408.7424,-106 414.7424,-106 420.7424,-112 420.7424,-118 420.7424,-118 420.7424,-450 420.7424,-450 420.7424,-456 414.7424,-462 408.7424,-462 408.7424,-462 36,-462 36,-462 30,-462 24,-456 24,-450 24,-450 24,-118 24,-118 24,-112 30,-106 36,-106"/>
<text text-anchor="middle" x="222.3712" y="-449.2" font-family="Times,serif" font-size="11.00" fill="#c0c0c0">Downloader</text>
</g>
<g id="clust4" class="cluster">
<title>cluster_\DownloadBooster\Downloader\Parallel</title>
<path fill="none" stroke="#c0c0c0" d="M290.4258,-160C290.4258,-160 390.8408,-160 390.8408,-160 396.8408,-160 402.8408,-166 402.8408,-172 402.8408,-172 402.8408,-219 402.8408,-219 402.8408,-225 396.8408,-231 390.8408,-231 390.8408,-231 290.4258,-231 290.4258,-231 284.4258,-231 278.4258,-225 278.4258,-219 278.4258,-219 278.4258,-172 278.4258,-172 278.4258,-166 284.4258,-160 290.4258,-160"/>
<text text-anchor="middle" x="340.6333" y="-218.2" font-family="Times,serif" font-size="11.00" fill="#c0c0c0">Parallel</text>
</g>
<g id="clust5" class="cluster">
<title>cluster_\DownloadBooster\Downloader\DownloadChunk</title>
<path fill="none" stroke="#c0c0c0" d="M44,-364C44,-364 400.7424,-364 400.7424,-364 406.7424,-364 412.7424,-370 412.7424,-376 412.7424,-376 412.7424,-423 412.7424,-423 412.7424,-429 406.7424,-435 400.7424,-435 400.7424,-435 44,-435 44,-435 38,-435 32,-429 32,-423 32,-423 32,-376 32,-376 32,-370 38,-364 44,-364"/>
<text text-anchor="middle" x="222.3712" y="-422.2" font-family="Times,serif" font-size="11.00" fill="#c0c0c0">DownloadChunk</text>
</g>
<g id="clust6" class="cluster">
<title>cluster_\DownloadBooster\Downloader\Serial</title>
<path fill="none" stroke="#c0c0c0" d="M283.8247,-285C283.8247,-285 397.4419,-285 397.4419,-285 403.4419,-285 409.4419,-291 409.4419,-297 409.4419,-297 409.4419,-344 409.4419,-344 409.4419,-350 403.4419,-356 397.4419,-356 397.4419,-356 283.8247,-356 283.8247,-356 277.8247,-356 271.8247,-350 271.8247,-344 271.8247,-344 271.8247,-297 271.8247,-297 271.8247,-291 277.8247,-285 283.8247,-285"/>
<text text-anchor="middle" x="340.6333" y="-343.2" font-family="Times,serif" font-size="11.00" fill="#c0c0c0">Serial</text>
</g>
<!-- \\DownloadBooster\\Downloader\\Parallel\\DownloadThread -->
<g id="node1" class="node">
<title>\\DownloadBooster\\Downloader\\Parallel\\DownloadThread</title>
<polygon fill="none" stroke="#000000" points="395.0491,-204 286.2175,-204 286.2175,-168 395.0491,-168 395.0491,-204"/>
<text text-anchor="middle" x="340.6333" y="-182.7" font-family="Courier,monospace" font-size="11.00" fill="#000000">DownloadThread</text>
</g>
<!-- \\Thread -->
<g id="node9" class="node">
<title>\\Thread</title>
<ellipse fill="none" stroke="#000000" cx="120.6118" cy="-18" rx="37.7092" ry="18"/>
<text text-anchor="middle" x="120.6118" y="-13.8" font-family="Times,serif" font-size="14.00" fill="#c0c0c0">\Thread</text>
</g>
<!-- \\DownloadBooster\\Downloader\\Parallel\\DownloadThread&#45;&gt;\\Thread -->
<g id="edge1" class="edge">
<title>\\DownloadBooster\\Downloader\\Parallel\\DownloadThread&#45;&gt;\\Thread</title>
<path fill="none" stroke="#000000" d="M286.2522,-171.2469C281.2364,-169.1098 276.3463,-166.7021 271.8247,-164 257.1046,-155.2032 182.478,-80.6119 143.854,-41.5884"/>
<polygon fill="none" stroke="#000000" points="146.1569,-38.9394 136.6377,-34.2879 141.1785,-43.8604 146.1569,-38.9394"/>
</g>
<!-- \\DownloadBooster\\Downloader\\DownloadChunk\\CurlDownloadChunk -->
<g id="node2" class="node">
<title>\\DownloadBooster\\Downloader\\DownloadChunk\\CurlDownloadChunk</title>
<polygon fill="none" stroke="#000000" points="404.8517,-408 276.4149,-408 276.4149,-372 404.8517,-372 404.8517,-408"/>
<text text-anchor="middle" x="340.6333" y="-386.7" font-family="Courier,monospace" font-size="11.00" fill="#000000">CurlDownloadChunk</text>
</g>
<!-- \\DownloadBooster\\Downloader\\DownloadChunk\\DownloadChunkInterface -->
<g id="node3" class="node">
<title>\\DownloadBooster\\Downloader\\DownloadChunk\\DownloadChunkInterface</title>
<polygon fill="none" stroke="#000000" points="201.3356,-408 39.888,-408 39.888,-372 201.3356,-372 201.3356,-408"/>
<text text-anchor="middle" x="120.6118" y="-386.7" font-family="Courier,monospace" font-size="11.00" fill="#000000">DownloadChunkInterface</text>
</g>
<!-- \\DownloadBooster\\Downloader\\DownloadChunk\\CurlDownloadChunk&#45;&gt;\\DownloadBooster\\Downloader\\DownloadChunk\\DownloadChunkInterface -->
<g id="edge4" class="edge">
<title>\\DownloadBooster\\Downloader\\DownloadChunk\\CurlDownloadChunk&#45;&gt;\\DownloadBooster\\Downloader\\DownloadChunk\\DownloadChunkInterface</title>
<path fill="none" stroke="#000000" stroke-dasharray="1,5" d="M276.4025,-390C256.1452,-390 233.3672,-390 211.6122,-390"/>
<polygon fill="none" stroke="#000000" points="211.3671,-386.5001 201.3671,-390 211.3671,-393.5001 211.3671,-386.5001"/>
</g>
<!-- \\DownloadBooster\\Downloader\\Serial\\SerialDownloader -->
<g id="node4" class="node">
<title>\\DownloadBooster\\Downloader\\Serial\\SerialDownloader</title>
<polygon fill="none" stroke="#000000" points="401.2511,-329 280.0155,-329 280.0155,-293 401.2511,-293 401.2511,-329"/>
<text text-anchor="middle" x="340.6333" y="-307.7" font-family="Courier,monospace" font-size="11.00" fill="#000000">SerialDownloader</text>
</g>
<!-- \\DownloadBooster\\Downloader\\DownloaderInterface -->
<g id="node7" class="node">
<title>\\DownloadBooster\\Downloader\\DownloaderInterface</title>
<polygon fill="none" stroke="#000000" points="191.5329,-302 49.6908,-302 49.6908,-266 191.5329,-266 191.5329,-302"/>
<text text-anchor="middle" x="120.6118" y="-280.7" font-family="Courier,monospace" font-size="11.00" fill="#000000">DownloaderInterface</text>
</g>
<!-- \\DownloadBooster\\Downloader\\Serial\\SerialDownloader&#45;&gt;\\DownloadBooster\\Downloader\\DownloaderInterface -->
<g id="edge5" class="edge">
<title>\\DownloadBooster\\Downloader\\Serial\\SerialDownloader&#45;&gt;\\DownloadBooster\\Downloader\\DownloaderInterface</title>
<path fill="none" stroke="#000000" stroke-dasharray="1,5" d="M279.929,-303.5507C255.7864,-300.588 227.6491,-297.1351 201.7968,-293.9626"/>
<polygon fill="none" stroke="#000000" points="201.989,-290.46 191.6371,-292.7159 201.1363,-297.4079 201.989,-290.46"/>
</g>
<!-- \\DownloadBooster\\Downloader\\ParallelDownloader -->
<g id="node5" class="node">
<title>\\DownloadBooster\\Downloader\\ParallelDownloader</title>
<polygon fill="none" stroke="#000000" points="407.9528,-275 273.3138,-275 273.3138,-239 407.9528,-239 407.9528,-275"/>
<text text-anchor="middle" x="340.6333" y="-253.7" font-family="Courier,monospace" font-size="11.00" fill="#000000">ParallelDownloader</text>
</g>
<!-- \\DownloadBooster\\Downloader\\ParallelDownloader&#45;&gt;\\DownloadBooster\\Downloader\\DownloaderInterface -->
<g id="edge3" class="edge">
<title>\\DownloadBooster\\Downloader\\ParallelDownloader&#45;&gt;\\DownloadBooster\\Downloader\\DownloaderInterface</title>
<path fill="none" stroke="#000000" stroke-dasharray="1,5" d="M273.1244,-265.2844C250.4655,-268.065 224.9641,-271.1944 201.3929,-274.0869"/>
<polygon fill="none" stroke="#000000" points="200.9223,-270.6183 191.4231,-275.3104 201.775,-277.5662 200.9223,-270.6183"/>
</g>
<!-- \\DownloadBooster\\Downloader\\ParallelDownloader&#45;&gt;\\Thread -->
<g id="edge2" class="edge">
<title>\\DownloadBooster\\Downloader\\ParallelDownloader&#45;&gt;\\Thread</title>
<path fill="none" stroke="#000000" d="M276.9726,-238.8531C275.1829,-237.6498 273.4607,-236.3672 271.8247,-235 220.4721,-192.0858 240.4569,-156.2168 201.2236,-102 184.9882,-79.5641 163.0399,-57.082 146.1447,-41.03"/>
<polygon fill="none" stroke="#000000" points="148.4681,-38.4107 138.7763,-34.1305 143.6836,-43.5203 148.4681,-38.4107"/>
</g>
<!-- \\DownloadBooster\\Downloader\\DownloaderFactory -->
<g id="node6" class="node">
<title>\\DownloadBooster\\Downloader\\DownloaderFactory</title>
<polygon fill="none" stroke="#000000" points="404.8517,-150 276.4149,-150 276.4149,-114 404.8517,-114 404.8517,-150"/>
<text text-anchor="middle" x="340.6333" y="-128.7" font-family="Courier,monospace" font-size="11.00" fill="#000000">DownloaderFactory</text>
</g>
<!-- \\DownloadBooster\\DownloadBooster -->
<g id="node8" class="node">
<title>\\DownloadBooster\\DownloadBooster</title>
<polygon fill="none" stroke="#000000" points="398.1494,-96 283.1172,-96 283.1172,-60 398.1494,-60 398.1494,-96"/>
<text text-anchor="middle" x="340.6333" y="-74.7" font-family="Courier,monospace" font-size="11.00" fill="#000000">DownloadBooster</text>
</g>
</g>
</svg>
